HIERARCHY
ROOT hip
{
	OFFSET 0.000000 0.000000 0.000000 
	CHANNELS 6 Xposition Yposition Zposition Xrotation Zrotation Yrotation
	JOINT abdomen
	{
		OFFSET 0.000000 3.402643 0.000000 
		CHANNELS 3 Xrotation Zrotation Yrotation
		JOINT chest
		{
			OFFSET 0.000000 8.438565 -0.680529 
			CHANNELS 3 Xrotation Zrotation Yrotation
			JOINT neck
			{
				OFFSET 0.000000 10.207942 -0.272212 
				CHANNELS 3 Xrotation Zrotation Yrotation
				JOINT head
				{
					OFFSET 0.000000 3.130431 0.000000 
					CHANNELS 3 Xrotation Zrotation Yrotation
					End Site
					{
						OFFSET 0.000000 3.130435 0.000000 
					}
				}
			}
			JOINT lCollar
			{
				OFFSET 3.470700 6.669187 -0.816635 
				CHANNELS 3 Yrotation Zrotation Xrotation
				JOINT lShldr
				{
					OFFSET 3.198488 0.000000 0.000000 
					CHANNELS 3 Zrotation Yrotation Xrotation
					JOINT lForeArm
					{
						OFFSET 10.139888 0.000000 0.000000 
						CHANNELS 3 Yrotation Zrotation Xrotation
						JOINT lHand
						{
							OFFSET 8.370511 0.000000 0.000000 
							CHANNELS 3 Zrotation Yrotation Xrotation
							End Site
							{
								OFFSET 4.083176 0.000000 0.000000 
							}
						}
					}
				}
			}
			JOINT rCollar
			{
				OFFSET -3.470700 6.669187 -0.816635 
				CHANNELS 3 Yrotation Zrotation Xrotation
				JOINT rShldr
				{
					OFFSET -3.198488 0.000000 0.000000 
					CHANNELS 3 Zrotation Yrotation Xrotation
					JOINT rForeArm
					{
						OFFSET -10.139888 0.000000 0.000000 
						CHANNELS 3 Yrotation Zrotation Xrotation
						JOINT rHand
						{
							OFFSET -8.370511 0.000000 0.000000 
							CHANNELS 3 Zrotation Yrotation Xrotation
							End Site
							{
								OFFSET -4.083176 0.000000 0.000000 
							}
						}
					}
				}
			}
		}
	}
	JOINT lThigh
	{
		OFFSET 5.308129 -1.633274 1.361059 
		CHANNELS 3 Xrotation Zrotation Yrotation
		JOINT lShin
		{
			OFFSET -2.041588 -20.007561 0.000000 
			CHANNELS 3 Xrotation Zrotation Yrotation
			JOINT lFoot
			{
				OFFSET 0.000000 -19.190928 -1.224953 
				CHANNELS 3 Xrotation Yrotation Zrotation
				End Site
				{
					OFFSET 0.000000 -2.449906 4.627600 
				}
			}
		}
	}
	JOINT rThigh
	{
		OFFSET -5.308129 -1.633274 1.361059 
		CHANNELS 3 Xrotation Zrotation Yrotation
		JOINT rShin
		{
			OFFSET 2.041588 -20.007561 0.000000 
			CHANNELS 3 Xrotation Zrotation Yrotation
			JOINT rFoot
			{
				OFFSET 0.000000 -19.190928 -1.224953 
				CHANNELS 3 Xrotation Yrotation Zrotation
				End Site
				{
					OFFSET 0.000000 -2.449906 4.627600 
				}
			}
		}
	}
}
MOTION
Frames: 13
Frame Time: 0.033333
0.050500 47.339977 5.910358 8.321464 2.317652 -4.309824 0.000000 0.000000 0.000000 -5.764260 -2.651703 5.943770 38.648880 -3.290914 -0.450160 -20.623781 1.533881 6.223170 -5.948479 18.652920 24.976866 -32.259911 20.787884 -31.180786 -24.950993 18.315523 29.364359 -8.263176 -10.562242 -60.036919 0.133460 -26.366684 24.285898 13.945247 4.427563 56.104832 -8.347974 -15.677468 -24.228489 25.135708 -3.433914 -80.415939 -1.435849 7.701094 19.676497 26.433094 2.740649 -0.331797 -9.490357 -1.180054 -19.959633 -11.226523 -9.156892 -1.264611 37.678188 -0.986175 2.105704 -7.137319 0.949267 23.830080 
0.046823 47.330135 5.895558 8.390734 2.239370 -4.436687 0.000000 0.000000 0.000000 -5.808525 -2.505917 5.962415 38.503586 -3.369032 -0.459913 -20.720547 1.436613 6.291240 -5.762752 18.638393 24.981810 -32.192425 20.698772 -31.168196 -24.874716 18.313496 29.225164 -8.453783 -10.755438 -59.937950 0.172939 -26.507570 24.293890 13.980160 4.498003 56.112938 -8.307983 -15.627240 -24.365971 25.100388 -3.408152 -80.413437 -1.562561 7.880523 19.755020 26.838621 2.809599 -0.322435 -9.233523 -1.342350 -21.480803 -11.363741 -8.981660 -1.191422 37.724102 -1.074206 2.098523 -7.193699 1.012595 23.767113 
0.044487 47.334747 5.897096 8.274364 2.103060 -4.436336 0.000000 0.000000 0.000000 -5.666308 -2.340590 6.010800 38.483349 -3.281145 -0.459909 -20.877413 1.271810 6.202889 -5.718043 18.561642 24.978674 -32.091145 20.604019 -31.146336 -24.938532 18.365995 29.336796 -8.541256 -10.615021 -59.946255 0.155733 -26.454107 24.302664 13.919739 4.393034 56.119320 -8.224819 -15.618904 -24.448898 24.986288 -3.379001 -80.404205 -1.406786 8.045900 19.766642 26.872713 2.652803 -0.367409 -9.797004 -1.143520 -19.956171 -11.195899 -8.833671 -1.177957 37.616089 -1.084058 2.101669 -7.158398 0.893107 23.478621 
0.009239 47.331917 5.899734 8.311296 1.907738 -4.660492 0.000000 0.000000 0.000000 -5.733135 -2.126775 6.049078 38.523270 -3.388563 -0.459914 -20.812992 1.300644 6.320050 -5.316392 18.588713 24.985403 -31.940584 20.335194 -31.092325 -25.059965 18.373962 30.015259 -8.450582 -10.611806 -59.984573 0.188306 -26.369789 24.313301 13.724701 4.696475 55.990437 -8.203382 -15.448439 -24.314823 24.960894 -3.173921 -80.427795 -1.309488 8.410782 19.927820 26.657572 2.311129 -0.428798 -9.784324 -0.954059 -19.233013 -11.246500 -8.454457 -1.034561 37.601704 -1.263376 2.034028 -7.126597 0.938633 23.813910 
-0.027915 47.306355 5.879370 8.571337 1.829030 -4.973152 0.000000 0.000000 0.000000 -6.041644 -1.980927 6.097184 38.428734 -3.622920 -0.480028 -20.532562 1.464714 6.642939 -4.586123 18.802078 24.977654 -31.782902 19.836267 -30.990540 -25.157410 18.377966 30.728300 -8.476844 -10.799136 -59.941959 0.423400 -26.642862 24.402946 13.946319 5.016072 56.015026 -8.154655 -15.332909 -24.678717 25.028400 -3.247449 -80.406868 -1.544046 8.741054 20.062141 26.650017 2.018534 -0.502239 -9.717555 -0.760695 -19.073111 -11.745078 -8.064439 -0.921532 37.806919 -1.513529 1.998452 -7.037959 1.115462 24.445076 
-0.019763 47.341217 5.911183 7.899951 1.712461 -4.904526 0.000000 0.000000 0.000000 -5.286244 -1.951831 6.087426 38.406948 -3.495981 -0.459917 -20.522547 1.464685 6.652701 -4.754122 18.515701 24.991474 -31.601833 19.975567 -31.040693 -25.412134 18.486868 30.617987 -8.796309 -10.500039 -59.885090 0.366716 -26.375166 24.400158 13.702533 4.819710 55.963779 -8.018423 -15.311618 -25.044893 25.052168 -3.400020 -80.409584 -0.646034 8.722113 20.076649 26.365452 2.164910 -0.454835 -9.352295 -1.132648 -20.184074 -10.738022 -8.102359 -0.958528 37.371147 -1.415958 2.007984 -6.947828 1.037203 24.371107 
-0.048871 47.361935 5.897141 7.711478 1.410876 -4.884214 0.000000 0.000000 0.000000 -5.002672 -1.660362 6.135321 38.335892 -3.300684 -0.440411 -20.532913 1.504074 6.457458 -4.953230 18.373808 24.977758 -31.570166 20.076046 -31.089252 -25.394552 18.541014 30.493717 -8.774858 -10.311042 -59.946892 0.076665 -26.138340 24.270206 13.451618 4.953410 55.867088 -7.948956 -15.120442 -25.457298 24.917004 -3.436635 -80.399040 -0.558067 9.104406 20.193033 26.494616 2.145627 -0.451584 -8.888064 -1.293964 -20.959553 -10.474001 -7.692036 -0.832934 37.262417 -1.464679 1.979741 -6.979804 0.551586 23.357185 
-0.064343 47.371613 5.864977 7.820747 1.264849 -4.923044 0.000000 0.000000 0.000000 -5.028946 -1.534052 6.164075 38.288425 -3.329971 -0.459911 -20.493961 1.542284 6.652965 -4.908378 18.318817 24.977896 -31.688004 20.150158 -31.085556 -25.849794 18.407536 29.546476 -8.768993 -10.231936 -59.886620 -0.022871 -26.033575 24.212894 13.582670 5.091921 55.880348 -8.188403 -15.138717 -26.205256 24.895782 -3.972103 -80.389931 -0.664623 9.383160 20.308159 26.260704 2.136029 -0.439178 -8.101671 -1.677053 -22.483654 -10.748871 -7.439368 -0.744185 37.440804 -1.611378 1.986640 -6.769707 0.682777 24.107023 
-0.074995 47.364288 5.863791 8.116729 1.196493 -5.059527 0.000000 0.000000 0.000000 -5.349357 -1.417437 6.202890 38.308033 -3.339737 -0.459912 -20.592443 1.677746 6.751144 -4.938154 19.096138 24.978287 -33.738712 19.768988 -30.706802 -26.864235 17.052853 26.303982 -6.735639 -8.950891 -60.626041 0.230298 -26.251377 24.324673 15.247600 5.321473 56.361668 -6.700469 -15.568984 -29.049908 23.583370 -7.055974 -80.304924 -0.879990 9.575702 20.384710 25.991440 1.941050 -0.465438 -7.224235 -1.586465 -23.373213 -10.983357 -7.244290 -0.673851 37.265697 -1.640787 1.923888 -6.799438 0.562729 23.718391 
-0.038242 47.377018 5.867157 8.208071 1.682666 -5.138800 0.000000 0.000000 0.000000 -5.517538 -1.825527 6.106317 38.506454 -3.574094 -0.480020 -20.600290 1.726684 6.624254 -4.515917 18.929302 24.984573 -36.737503 18.691496 -29.961735 -28.868898 14.834777 21.026356 -3.612210 -8.732439 -61.461594 0.612188 -26.467066 24.487659 18.784935 6.479213 57.298588 -4.746377 -17.431177 -31.701183 21.975163 -9.653898 -80.181343 -0.831121 9.056480 20.174311 24.811190 1.764876 -0.435918 -5.992009 -1.583894 -24.432535 -10.895130 -7.888227 -0.867682 36.813950 -1.494056 1.909612 -6.695720 0.946514 22.730583 
0.051418 47.372753 5.823381 8.237674 2.559799 -4.682216 0.000000 0.000000 0.000000 -5.487760 -2.729553 5.914498 38.613022 -3.544803 -0.469665 -20.329540 1.669132 6.428732 -4.662380 17.999769 24.979050 -41.717491 16.943098 -28.600948 -32.782917 14.036281 18.246613 -2.109017 -10.443684 -61.861637 0.657992 -25.637327 24.548269 24.482155 8.577532 58.885643 -4.770123 -20.942261 -31.375000 21.214220 -9.418104 -80.311966 -1.260538 7.739249 19.680305 25.047901 2.252945 -0.352102 -7.008749 -1.383554 -22.586246 -10.983177 -9.274636 -1.312067 36.904087 -1.113438 2.031333 -6.729019 1.346302 23.340828 
0.191106 47.294598 5.670561 9.362444 3.615913 -3.600752 0.000000 0.000000 0.000000 -6.490606 -3.896867 5.676808 38.382542 -3.017489 -0.440386 -20.335527 1.194811 5.899798 -6.318387 16.762932 24.980888 -48.206127 15.628469 -26.731272 -38.023872 12.781999 20.666275 -2.338403 -11.734480 -62.175587 0.774511 -24.039423 24.639242 31.584681 10.594488 61.127674 -4.538228 -24.561068 -28.663063 21.075615 -7.059586 -80.568954 -3.572973 6.029780 19.031502 26.107521 3.548442 -0.135044 -8.055789 -1.781049 -21.344242 -12.821446 -11.171136 -1.817988 38.059120 -0.380752 2.314306 -7.015659 1.464078 23.799246 
0.218874 47.237911 5.572807 10.054960 3.460517 -3.453351 0.000000 0.000000 0.000000 -7.171030 -3.741129 5.715145 38.282429 -2.890551 -0.411112 -20.753561 0.602781 5.400707 -7.800010 14.720186 24.979042 -53.882778 14.836203 -24.943907 -42.619759 9.134653 28.925711 -4.003930 -12.543104 -62.264580 1.801445 -22.039869 25.000000 39.068378 12.413530 63.717304 -2.637972 -28.433704 -22.941639 22.182266 -4.051654 -80.828369 -4.668086 6.084163 19.001055 26.051296 3.611778 -0.092057 -8.111787 -1.522213 -20.316290 -14.029842 -11.100810 -1.769102 38.704227 -0.253874 2.380932 -7.131168 1.325373 23.696304 
